<svg width="42" height="48" viewBox="0 0 42 48" fill="none" xmlns="http://www.w3.org/2000/svg">
<path d="M41.6953 1.36115C42.1976 0.858851 41.8419 0 41.1315 0H0.956811C0.428379 0 0 0.428379 0 0.956811V8.6113C0 9.13973 0.428379 9.56811 0.956811 9.56811H31.5068C32.7756 9.56811 33.9924 9.06407 34.8896 8.16689L41.6953 1.36115Z" fill="#49C237"/>
<path d="M41.6953 20.4974C42.1976 19.9951 41.8419 19.1362 41.1315 19.1362H10.5249C9.99649 19.1362 9.56811 19.5646 9.56811 20.093V27.7475C9.56811 28.2759 9.99649 28.7043 10.5249 28.7043H31.5068C32.7756 28.7043 33.9924 28.2003 34.8896 27.3031L41.6953 20.4974Z" fill="#49C237"/>
<path d="M41.6953 39.6336C42.1976 39.1313 41.8419 38.2724 41.1315 38.2724H0.956811C0.428379 38.2724 0 38.7008 0 39.2292V46.8837C0 47.4122 0.428379 47.8405 0.956811 47.8405H31.5068C32.7756 47.8405 33.9924 47.3365 34.8896 46.4393L41.6953 39.6336Z" fill="#49C237"/>
</svg>
